<?xml version="1.0" standalone="no"?>
<!DOCTYPE svg PUBLIC "-//W3C//DTD SVG 20010904//EN"
 "http://www.w3.org/TR/2001/REC-SVG-20010904/DTD/svg10.dtd">
<svg version="1.0" xmlns="http://www.w3.org/2000/svg"
 width="256.000000pt" height="256.000000pt" viewBox="0 0 256.000000 256.000000"
 preserveAspectRatio="xMidYMid meet">
<metadata>
Created by potrace 1.14, written by Peter Selinger 2001-2017
</metadata>
<g transform="translate(0.000000,256.000000) scale(0.100000,-0.100000)"
fill="#000000" stroke="none">
<path d="M0 1280 l0 -1280 1280 0 1280 0 0 1280 0 1280 -1280 0 -1280 0 0
-1280z m1835 1124 c48 -25 100 -90 115 -142 6 -22 10 -164 9 -352 0 -272 -2
-321 -17 -356 -10 -25 -57 -85 -114 -145 l-98 -102 0 469 c0 288 -4 483 -10
506 -6 21 -26 50 -47 68 -35 31 -38 32 -114 28 -70 -3 -81 -6 -109 -33 -16
-16 -35 -47 -41 -70 -8 -28 -10 -256 -6 -755 4 -670 6 -721 25 -805 47 -212
126 -344 253 -426 58 -37 155 -69 210 -69 35 0 39 -3 39 -25 0 -29 -5 -30
-116 -14 -167 23 -320 97 -445 217 -75 71 -94 96 -133 176 -52 106 -90 237
-106 368 -8 63 -10 286 -8 683 l3 590 26 53 c14 28 22 52 18 52 -17 0 -120
-104 -154 -155 -19 -30 -47 -84 -61 -121 -56 -150 -56 -154 -63 -674 -7 -584
6 -529 -160 -676 -62 -55 -116 -100 -121 -102 -6 -2 -10 184 -10 500 0 533 5
606 50 767 27 96 79 209 126 273 50 68 150 149 245 198 170 88 229 99 534 97
222 -2 243 -4 280 -23z"/>
</g>
</svg>
